<svg width="30" height="30" viewBox="0 0 30 30" fill="none" xmlns="http://www.w3.org/2000/svg">
<mask id="path-1-outside-1_220_50" maskUnits="userSpaceOnUse" x="8" y="0" width="15" height="28" fill="black">
<rect fill="white" x="8" width="15" height="28"/>
<path d="M16.5 1C16.7761 1 17 1.22386 17 1.5V4.06934C17.4832 4.16799 18.3167 4.40835 19.5 5C21.5 6 21.5 6.5 21.5 6.5L19.5 9C19.5 9 19 8.5 18 8C17 7.5 15.3797 7.12026 14.5 8C13.6203 8.87974 14 10 15 11C15.9999 11.9999 17.4999 12.4998 18 12.7998C18.5 13.0998 22 14.2177 22 18C22 22.5 17 24 17 24V26.5C17 26.7761 16.7761 27 16.5 27H14.5C14.2239 27 14 26.7761 14 26.5V24C11.9735 23.6456 10.8789 23.1959 9 22L11 19C11 19 12.9999 20.0997 13.5 20.2998C14 20.4998 15 20.5 15.5 20.5C16 20.5 17.5 20 17.5 19C17.5 18 17.6494 17.6494 17 17C16.3506 16.3506 12.5 14.5 12 14C11.4153 13.4153 9.5 12.2544 9.5 9C9.71577 7.48959 10.5834 6.30567 11.5 5.5C12.7074 4.43874 14 4 14 4V1.5C14 1.22386 14.2239 1 14.5 1H16.5Z"/>
</mask>
<path d="M16.5 1C16.7761 1 17 1.22386 17 1.5V4.06934C17.4832 4.16799 18.3167 4.40835 19.5 5C21.5 6 21.5 6.5 21.5 6.5L19.5 9C19.5 9 19 8.5 18 8C17 7.5 15.3797 7.12026 14.5 8C13.6203 8.87974 14 10 15 11C15.9999 11.9999 17.4999 12.4998 18 12.7998C18.5 13.0998 22 14.2177 22 18C22 22.5 17 24 17 24V26.5C17 26.7761 16.7761 27 16.5 27H14.5C14.2239 27 14 26.7761 14 26.5V24C11.9735 23.6456 10.8789 23.1959 9 22L11 19C11 19 12.9999 20.0997 13.5 20.2998C14 20.4998 15 20.5 15.5 20.5C16 20.5 17.5 20 17.5 19C17.5 18 17.6494 17.6494 17 17C16.3506 16.3506 12.5 14.5 12 14C11.4153 13.4153 9.5 12.2544 9.5 9C9.71577 7.48959 10.5834 6.30567 11.5 5.5C12.7074 4.43874 14 4 14 4V1.5C14 1.22386 14.2239 1 14.5 1H16.5Z" fill="#70FF3D"/>
<path d="M16.5 1L16.5 0.3H16.5V1ZM17 1.5L17.7 1.5V1.5L17 1.5ZM17 4.06934H16.3C16.3 4.40196 16.5341 4.68865 16.86 4.75519L17 4.06934ZM21.5 6.5L22.0466 6.93729C22.1459 6.81317 22.2 6.65895 22.2 6.5H21.5ZM19.5 9L19.005 9.49497C19.1458 9.63577 19.3399 9.70994 19.5387 9.69893C19.7375 9.68792 19.9222 9.59277 20.0466 9.43729L19.5 9ZM18 12.7998L18.3601 12.1996L18.3601 12.1995L18 12.7998ZM17 24L16.7989 23.3295C16.5028 23.4183 16.3 23.6909 16.3 24H17ZM17 26.5L17.7 26.5V26.5H17ZM16.5 27L16.5 27.7H16.5L16.5 27ZM14.5 27L14.5 27.7H14.5V27ZM14 26.5L13.3 26.5V26.5L14 26.5ZM14 24H14.7C14.7 23.6599 14.4556 23.369 14.1206 23.3105L14 24ZM9 22L8.41756 21.6117C8.31316 21.7683 8.27622 21.9604 8.31509 22.1445C8.35395 22.3287 8.46534 22.4895 8.62413 22.5905L9 22ZM11 19L11.3373 18.3866C11.0188 18.2115 10.6192 18.3093 10.4176 18.6117L11 19ZM13.5 20.2998L13.24 20.9497L13.24 20.9497L13.5 20.2998ZM12 14L11.505 14.495L11.505 14.495L12 14ZM9.5 9L8.80704 8.90101C8.80235 8.9338 8.8 8.96688 8.8 9H9.5ZM11.5 5.5L11.9621 6.02578L11.5 5.5ZM14 4L14.225 4.66286C14.509 4.56646 14.7 4.29989 14.7 4H14ZM14 1.5L13.3 1.5V1.5H14ZM14.5 1L14.5 0.3L14.5 0.3L14.5 1ZM16.5 1L16.5 1.7C16.3895 1.7 16.3 1.61046 16.3 1.5L17 1.5L17.7 1.5C17.7 0.837258 17.1627 0.3 16.5 0.3L16.5 1ZM17 1.5H16.3V4.06934H17H17.7V1.5H17ZM17 4.06934L16.86 4.75519C17.2783 4.84061 18.0539 5.05958 19.187 5.6261L19.5 5L19.813 4.3739C18.5795 3.75712 17.6881 3.49538 17.14 3.38349L17 4.06934ZM19.5 5L19.187 5.6261C20.154 6.10963 20.5799 6.44484 20.755 6.61997C20.8403 6.7052 20.8526 6.7392 20.8427 6.7193C20.8373 6.70869 20.8265 6.68424 20.817 6.64634C20.8123 6.62746 20.808 6.60562 20.8049 6.58096C20.8034 6.56866 20.8021 6.55573 20.8013 6.5422C20.8009 6.53544 20.8006 6.52854 20.8003 6.5215C20.8002 6.51798 20.8001 6.51443 20.8001 6.51084C20.8001 6.50905 20.8 6.50725 20.8 6.50545C20.8 6.50454 20.8 6.50318 20.8 6.50273C20.8 6.50137 20.8 6.5 21.5 6.5C22.2 6.5 22.2 6.49863 22.2 6.49726C22.2 6.4968 22.2 6.49543 22.2 6.49451C22.2 6.49267 22.1999 6.49083 22.1999 6.48897C22.1999 6.48527 22.1998 6.48153 22.1997 6.47777C22.1994 6.47024 22.1991 6.46261 22.1986 6.45487C22.1976 6.43939 22.1961 6.42353 22.1941 6.40732C22.19 6.37485 22.1838 6.34129 22.1752 6.30679C22.1579 6.23764 22.1314 6.16631 22.0948 6.0932C22.0224 5.9483 21.9097 5.7948 21.745 5.63003C21.4201 5.30516 20.846 4.89037 19.813 4.3739L19.5 5ZM21.5 6.5L20.9534 6.06271L18.9534 8.56271L19.5 9L20.0466 9.43729L22.0466 6.93729L21.5 6.5ZM19.5 9C19.995 8.50503 19.9949 8.5049 19.9947 8.50478C19.9947 8.50473 19.9946 8.50461 19.9945 8.50452C19.9943 8.50434 19.9941 8.50416 19.9939 8.50397C19.9935 8.50358 19.9931 8.50317 19.9927 8.50272C19.9918 8.50183 19.9907 8.50082 19.9896 8.49969C19.9873 8.49743 19.9845 8.4947 19.9812 8.49149C19.9746 8.48509 19.966 8.47684 19.9553 8.46686C19.934 8.44691 19.9047 8.42004 19.8672 8.38726C19.7923 8.32171 19.6849 8.23243 19.545 8.1275C19.2653 7.91771 18.8547 7.64473 18.313 7.3739L18 8L17.687 8.6261C18.1453 8.85527 18.4847 9.08229 18.705 9.2475C18.8151 9.33007 18.8952 9.39704 18.9453 9.44087C18.9703 9.46277 18.9878 9.47887 18.9978 9.48822C19.0028 9.49289 19.0059 9.49586 19.0071 9.49703C19.0077 9.49761 19.0078 9.49774 19.0075 9.49741C19.0073 9.49724 19.007 9.49695 19.0066 9.49655C19.0064 9.49635 19.0062 9.49611 19.0059 9.49585C19.0058 9.49572 19.0056 9.49558 19.0055 9.49544C19.0054 9.49536 19.0053 9.49525 19.0053 9.49521C19.0051 9.49509 19.005 9.49497 19.5 9ZM18 8L18.313 7.3739C17.7526 7.0937 17.0086 6.84028 16.2567 6.78452C15.5105 6.72918 14.6458 6.86425 14.005 7.50503L14.5 8L14.995 8.49497C15.2339 8.25601 15.6192 8.14109 16.1531 8.18068C16.6813 8.21985 17.2474 8.4063 17.687 8.6261L18 8ZM14.5 8L14.005 7.50503C13.398 8.11203 13.2008 8.85312 13.3605 9.60107C13.5099 10.3008 13.9564 10.9463 14.505 11.495L15 11L15.495 10.505C15.0436 10.0537 14.8002 9.63906 14.7297 9.30874C14.6694 9.02662 14.7222 8.76771 14.995 8.49497L14.5 8ZM15 11L14.505 11.495C15.0812 12.0711 15.7815 12.4855 16.3689 12.7857C16.6647 12.9369 16.9433 13.0646 17.1673 13.1681C17.407 13.2788 17.5546 13.3489 17.6399 13.4001L18 12.7998L18.3601 12.1995C18.1954 12.1007 17.968 11.9958 17.7545 11.8972C17.5253 11.7913 17.2727 11.6753 17.006 11.5391C16.4684 11.2643 15.9188 10.9288 15.495 10.505L15 11ZM18 12.7998L17.6399 13.4C18.3507 13.8266 21.3 14.7185 21.3 18H22H22.7C22.7 15.8564 21.6949 14.4486 20.6385 13.5587C20.1168 13.1192 19.5839 12.8058 19.1575 12.5853C18.9442 12.4749 18.7551 12.3866 18.6103 12.3194C18.5359 12.2848 18.4786 12.2583 18.4312 12.2355C18.4082 12.2244 18.3907 12.2157 18.3775 12.2089C18.3637 12.2017 18.359 12.1989 18.3601 12.1996L18 12.7998ZM22 18H21.3C21.3 19.9519 20.227 21.2673 19.08 22.1275C18.5068 22.5574 17.9296 22.861 17.494 23.057C17.2771 23.1545 17.0979 23.2244 16.9752 23.269C16.914 23.2914 16.867 23.3073 16.8368 23.3173C16.8217 23.3223 16.8108 23.3258 16.8043 23.3278C16.8011 23.3288 16.799 23.3295 16.7981 23.3297C16.7976 23.3299 16.7975 23.3299 16.7976 23.3299C16.7977 23.3299 16.7978 23.3298 16.798 23.3298C16.7981 23.3297 16.7983 23.3297 16.7984 23.3297C16.7986 23.3296 16.7989 23.3295 17 24C17.2011 24.6705 17.2014 24.6704 17.2017 24.6703C17.2019 24.6703 17.2022 24.6702 17.2025 24.6701C17.203 24.6699 17.2036 24.6697 17.2042 24.6695C17.2056 24.6691 17.2072 24.6686 17.2091 24.668C17.213 24.6669 17.2181 24.6653 17.2244 24.6633C17.2369 24.6594 17.254 24.6539 17.2755 24.6468C17.3185 24.6326 17.379 24.612 17.4544 24.5845C17.6052 24.5296 17.8166 24.447 18.0685 24.3337C18.5704 24.1078 19.2432 23.7551 19.92 23.2475C21.273 22.2327 22.7 20.5481 22.7 18H22ZM17 24H16.3V26.5H17H17.7V24H17ZM17 26.5L16.3 26.5C16.3 26.3895 16.3895 26.3 16.5 26.3L16.5 27L16.5 27.7C17.1627 27.7 17.7 27.1627 17.7 26.5L17 26.5ZM16.5 27V26.3H14.5V27V27.7H16.5V27ZM14.5 27L14.5 26.3C14.6105 26.3 14.7 26.3895 14.7 26.5L14 26.5L13.3 26.5C13.3 27.1627 13.8373 27.7 14.5 27.7L14.5 27ZM14 26.5H14.7V24H14H13.3V26.5H14ZM14 24L14.1206 23.3105C12.1959 22.9739 11.1872 22.5624 9.37587 21.4095L9 22L8.62413 22.5905C10.5707 23.8295 11.751 24.3173 13.8794 24.6895L14 24ZM9 22L9.58244 22.3883L11.5824 19.3883L11 19L10.4176 18.6117L8.41756 21.6117L9 22ZM11 19C10.6627 19.6134 10.6627 19.6134 10.6627 19.6134C10.6628 19.6134 10.6628 19.6134 10.6628 19.6134C10.6629 19.6135 10.663 19.6135 10.6631 19.6136C10.6634 19.6138 10.6638 19.614 10.6643 19.6143C10.6653 19.6148 10.6668 19.6156 10.6687 19.6167C10.6726 19.6188 10.6784 19.622 10.6859 19.6261C10.7008 19.6343 10.7228 19.6463 10.7509 19.6617C10.807 19.6924 10.8876 19.7364 10.9858 19.7899C11.1822 19.8967 11.4496 20.0414 11.7331 20.1925C12.2792 20.4837 12.9454 20.8319 13.24 20.9497L13.5 20.2998L13.76 19.6499C13.5545 19.5677 12.9707 19.2659 12.3918 18.9572C12.1128 18.8084 11.849 18.6657 11.6548 18.56C11.5577 18.5072 11.4782 18.4638 11.423 18.4336C11.3954 18.4185 11.3739 18.4067 11.3593 18.3987C11.352 18.3947 11.3465 18.3917 11.3428 18.3896C11.3409 18.3886 11.3395 18.3878 11.3386 18.3873C11.3381 18.3871 11.3378 18.3869 11.3376 18.3868C11.3375 18.3867 11.3374 18.3867 11.3374 18.3867C11.3373 18.3866 11.3373 18.3866 11.3373 18.3866C11.3373 18.3866 11.3373 18.3866 11 19ZM13.5 20.2998L13.24 20.9497C13.6015 21.0943 14.0741 21.148 14.4533 21.1733C14.8547 21.2002 15.2517 21.2 15.5 21.2V20.5V19.8C15.2483 19.8 14.8953 19.7997 14.5467 19.7765C14.1759 19.7517 13.8985 19.7053 13.76 19.6499L13.5 20.2998ZM15.5 20.5V21.2C15.8978 21.2 16.5167 21.0288 17.0348 20.7328C17.5395 20.4444 18.2 19.8867 18.2 19H17.5H16.8C16.8 19.1133 16.7105 19.3056 16.3402 19.5172C15.9833 19.7212 15.6022 19.8 15.5 19.8V20.5ZM17.5 19H18.2C18.2 18.7585 18.2087 18.5765 18.213 18.3716C18.217 18.1823 18.2171 17.9744 18.1859 17.7652C18.1147 17.2879 17.8975 16.9075 17.495 16.505L17 17L16.505 17.495C16.7519 17.7418 16.7847 17.8614 16.8012 17.9718C16.8138 18.0564 16.8171 18.1643 16.8133 18.3422C16.8099 18.5047 16.8 18.7415 16.8 19H17.5ZM17 17L17.495 16.505C17.2588 16.2689 16.8148 15.9878 16.3719 15.7254C15.9002 15.4459 15.3324 15.1327 14.7804 14.8301C14.2231 14.5247 13.6833 14.2309 13.2499 13.9816C13.0334 13.857 12.8512 13.748 12.7115 13.6578C12.6418 13.6127 12.5873 13.5754 12.5469 13.5456C12.5031 13.5133 12.4905 13.5005 12.495 13.505L12 14L11.505 14.495C11.6256 14.6156 11.7977 14.7342 11.952 14.8339C12.1211 14.9431 12.3269 15.0658 12.5518 15.1951C13.0013 15.4537 13.5585 15.7569 14.1076 16.0578C14.6619 16.3616 15.2097 16.6641 15.6583 16.9298C16.1357 17.2127 16.4165 17.4065 16.505 17.495L17 17ZM12 14L12.495 13.505C12.0903 13.1003 11.6123 12.8086 11.0997 12.0934C10.6296 11.4375 10.2 10.4752 10.2 9H9.5H8.8C8.8 10.7792 9.32802 12.0246 9.96177 12.9089C10.5531 13.734 11.325 14.315 11.505 14.495L12 14ZM9.5 9L10.193 9.09899C10.3781 7.8027 11.128 6.75895 11.9621 6.02578L11.5 5.5L11.0379 4.97422C10.0388 5.85238 9.0534 7.17647 8.80704 8.90101L9.5 9ZM11.5 5.5L11.9621 6.02578C12.5108 5.54355 13.0834 5.19922 13.5214 4.97531C13.7394 4.8639 13.9211 4.78375 14.0459 4.73233C14.1082 4.70665 14.1561 4.68823 14.1868 4.67675C14.2022 4.67101 14.2133 4.667 14.2198 4.6647C14.223 4.66355 14.2251 4.66282 14.226 4.66252C14.2264 4.66236 14.2266 4.66232 14.2264 4.66237C14.2263 4.6624 14.2262 4.66246 14.2259 4.66254C14.2258 4.66258 14.2257 4.66262 14.2255 4.66268C14.2254 4.6627 14.2253 4.66275 14.2253 4.66276C14.2251 4.66281 14.225 4.66286 14 4C13.775 3.33714 13.7749 3.3372 13.7747 3.33725C13.7746 3.33727 13.7745 3.33732 13.7744 3.33736C13.7741 3.33744 13.7739 3.33753 13.7736 3.33762C13.773 3.33781 13.7724 3.33803 13.7717 3.33827C13.7703 3.33876 13.7686 3.33935 13.7665 3.34006C13.7624 3.34148 13.7571 3.34335 13.7506 3.34567C13.7375 3.35031 13.7197 3.35677 13.6974 3.3651C13.6527 3.38175 13.5902 3.4059 13.5125 3.43794C13.3571 3.50195 13.1403 3.59781 12.8842 3.72874C12.374 3.98952 11.6967 4.39519 11.0379 4.97422L11.5 5.5ZM14 4H14.7V1.5H14H13.3V4H14ZM14 1.5L14.7 1.5C14.7 1.61046 14.6105 1.7 14.5 1.7L14.5 1L14.5 0.3C13.8373 0.3 13.3 0.837259 13.3 1.5L14 1.5ZM14.5 1V1.7H16.5V1V0.3H14.5V1Z" fill="black" mask="url(#path-1-outside-1_220_50)"/>
</svg>
