<svg width="287" height="328" viewBox="0 0 287 328" fill="none" xmlns="http://www.w3.org/2000/svg">
<path d="M268.004 144.3C271.435 139.99 276.818 137.852 281.841 141.068C284.296 143.071 286.115 144.876 286.489 148.146C286.468 152.754 285.87 157.091 284.961 161.603C284.817 162.327 284.673 163.052 284.525 163.799C281.569 178.22 276.72 192.375 269.765 205.369C269.294 206.249 268.829 207.133 268.368 208.018C262.657 218.974 255.511 228.662 247.375 237.932C246.992 238.385 246.609 238.838 246.215 239.306C240.804 245.681 234.782 251.277 228.223 256.445C227.721 256.863 227.218 257.279 226.701 257.709C215.526 266.948 202.56 274.322 189.28 280.066C188.626 280.352 188.626 280.352 187.959 280.644C171.817 287.6 153.866 291.685 136.292 292.195C136.299 292.635 136.306 293.076 136.312 293.529C136.612 316.259 136.613 316.26 131.186 322.839C127.682 326.084 124.864 327.41 120.053 327.587C119.33 327.626 118.606 327.664 117.861 327.704C111.136 327.198 105.729 322.2 101.247 317.635C100.377 316.771 100.376 316.771 99.4883 315.891C97.9154 314.33 96.3543 312.757 94.7959 311.182C93.1527 309.524 91.4994 307.876 89.8477 306.227C87.0777 303.458 84.3152 300.682 81.5576 297.9C78.3817 294.697 75.1944 291.506 72.001 288.32C68.9122 285.239 65.8309 282.15 62.7529 279.058C61.4504 277.749 60.1457 276.443 58.8389 275.139C57.0105 273.313 55.1925 271.478 53.376 269.641C52.573 268.842 52.5731 268.842 51.7539 268.027C45.0188 261.17 40.9632 253.335 40.8906 243.598C41.1942 226.842 54.9818 216.356 65.9756 205.357C67.0698 204.261 68.1647 203.166 69.2588 202.069C71.5385 199.786 73.8188 197.503 76.1006 195.222C79.0166 192.306 81.9284 189.385 84.8389 186.464C87.0915 184.204 89.3472 181.947 91.6035 179.691C92.6784 178.616 93.7525 177.539 94.8252 176.461C96.3247 174.955 97.8285 173.454 99.333 171.953C99.9873 171.293 99.9869 171.293 100.654 170.62C106.168 165.142 111.841 160.422 119.863 159.989C124.582 160.144 127.981 161.963 131.362 165.196C137.026 171.554 136.486 180.957 136.372 188.974C136.366 189.758 136.36 190.543 136.354 191.352C136.34 193.259 136.319 195.166 136.292 197.073C166.183 201.968 197.156 196.74 223.754 182.391C224.133 182.19 224.511 181.99 224.901 181.783C237.95 174.842 250.691 165.019 260.143 153.662C260.716 152.985 261.291 152.308 261.866 151.632C263.071 150.214 264.275 148.795 265.475 147.373C265.896 146.877 265.896 146.877 266.325 146.37C266.894 145.688 267.454 144.997 268.004 144.3ZM155.357 4.9248C160.79 -0.0271347 167.831 -1.49984 174.756 1.68262C180.454 5.10904 185.109 10.2225 189.798 14.8848C190.32 15.4015 190.842 15.9187 191.38 16.4512C193.084 18.1398 194.786 19.8306 196.487 21.5225C197.074 22.1055 197.659 22.6893 198.264 23.29C200.73 25.7424 203.195 28.1949 205.658 30.6504C209.157 34.1386 212.66 37.6215 216.172 41.0967C218.96 43.8572 221.74 46.6269 224.517 49.3994C225.689 50.5677 226.865 51.7338 228.043 52.8965C237.34 62.0789 245.18 69.9699 245.699 83.7568C245.252 97.0947 237.895 104.474 228.978 113.46C228.182 114.265 228.182 114.265 227.37 115.086C225.637 116.838 223.901 118.587 222.165 120.336C221.867 120.636 221.569 120.935 221.263 121.244C218.446 124.081 215.628 126.916 212.807 129.748C209.227 133.342 205.653 136.943 202.088 140.552C199.564 143.106 197.032 145.654 194.495 148.195C192.987 149.706 191.483 151.221 189.985 152.742C188.313 154.439 186.63 156.124 184.942 157.807C184.218 158.55 184.218 158.55 183.479 159.308C178.89 163.837 173.194 167.518 166.584 167.816C162.416 167.524 158.328 166.362 155.444 163.238C150.243 156.016 150.158 149.081 150.258 140.535C150.264 139.577 150.27 138.619 150.275 137.661C150.289 135.334 150.31 133.007 150.337 130.68C134.565 128.283 117.48 128.182 101.818 131.318C101.273 131.424 100.727 131.53 100.165 131.64C78.8365 135.912 58.4404 145.353 41.8086 159.408C41.4252 159.728 41.0415 160.047 40.6465 160.376C33.0883 166.679 26.4954 173.246 20.5566 181.141C16.0235 187.037 16.0238 187.038 12.4248 187.989C9.25124 188.36 6.83282 187.892 3.94336 186.42C1.52552 184.339 0.555635 182.773 0.0878906 179.582C-1.50569 148.294 18.7083 113.117 38.6172 90.46C38.9783 90.0281 39.3398 89.5964 39.7119 89.1514C45.6282 82.1211 52.3777 75.5896 59.6846 70.0312C60.1019 69.7067 60.5193 69.3822 60.9492 69.0479C86.2894 49.388 118.05 36.4141 150.337 35.5576C150.33 35.0269 150.324 34.496 150.317 33.9492C150.295 31.9541 150.28 29.9591 150.268 27.9639C150.258 26.686 150.241 25.4076 150.225 24.1299C150.19 17.3066 150.431 10.1711 155.357 4.9248Z" fill="#00ffff"/>
</svg>